# Rhino

mtllib coinCarnegie.mtl
g Cylinder
usemtl Material_1
v 0 -0.1500000059604645 -1
v 0 0.1500000059604645 -1
v 0.1950899958610535 -0.1500000059604645 -0.9807850122451782
v 0.1950899958610535 0.1500000059604645 -0.9807850122451782
v 0.3826830089092255 -0.1500000059604645 -0.9238799810409546
v 0.3826830089092255 0.1500000059604645 -0.9238799810409546
v 0.5555700063705444 -0.1500000059604645 -0.8314700126647949
v 0.5555700063705444 0.1500000059604645 -0.8314700126647949
v 0.7071070075035095 -0.1500000059604645 -0.7071070075035095
v 0.7071070075035095 0.1500000059604645 -0.7071070075035095
v 0.8314700126647949 -0.1500000059604645 -0.5555700063705444
v 0.8314700126647949 0.1500000059604645 -0.5555700063705444
v 0.9238799810409546 -0.1500000059604645 -0.3826830089092255
v 0.9238799810409546 0.1500000059604645 -0.3826830089092255
v 0.9807850122451782 -0.1500000059604645 -0.1950899958610535
v 0.9807850122451782 0.1500000059604645 -0.1950899958610535
v 1 -0.1500000059604645 0
v 1 0.1500000059604645 0
v 0.9807850122451782 -0.1500000059604645 0.1950899958610535
v 0.9807850122451782 0.1500000059604645 0.1950899958610535
v 0.9238799810409546 -0.1500000059604645 0.3826830089092255
v 0.9238799810409546 0.1500000059604645 0.3826830089092255
v 0.8314700126647949 -0.1500000059604645 0.5555700063705444
v 0.8314700126647949 -0.1500000059604645 0.5555700063705444
v 0.8314700126647949 0.1500000059604645 0.5555700063705444
v 0.8314700126647949 0.1500000059604645 0.5555700063705444
v 0.7071070075035095 -0.1500000059604645 0.7071070075035095
v 0.7071070075035095 0.1500000059604645 0.7071070075035095
v 0.5555700063705444 -0.1500000059604645 0.8314700126647949
v 0.5555700063705444 0.1500000059604645 0.8314700126647949
v 0.3826830089092255 -0.1500000059604645 0.9238799810409546
v 0.3826830089092255 0.1500000059604645 0.9238799810409546
v 0.1950899958610535 -0.1500000059604645 0.9807850122451782
v 0.1950899958610535 0.1500000059604645 0.9807850122451782
v 0 -0.1500000059604645 1
v 0 0.1500000059604645 1
v -0.1950909942388535 -0.1500000059604645 0.9807850122451782
v -0.1950909942388535 0.1500000059604645 0.9807850122451782
v -0.3826839923858643 -0.1500000059604645 0.9238790273666382
v -0.3826839923858643 0.1500000059604645 0.9238790273666382
v -0.5555710196495056 -0.1500000059604645 0.8314689993858337
v -0.5555710196495056 0.1500000059604645 0.8314689993858337
v -0.7071070075035095 -0.1500000059604645 0.7071059942245483
v -0.7071070075035095 0.1500000059604645 0.7071059942245483
v -0.8314700126647949 -0.1500000059604645 0.5555700063705444
v -0.8314700126647949 0.1500000059604645 0.5555700063705444
v -0.9238799810409546 -0.1500000059604645 0.3826830089092255
v -0.9238799810409546 0.1500000059604645 0.3826830089092255
v -0.9807850122451782 -0.1500000059604645 0.1950889974832535
v -0.9807850122451782 -0.1500000059604645 0.1950889974832535
v -0.9807850122451782 0.1500000059604645 0.1950889974832535
v -0.9807850122451782 0.1500000059604645 0.1950889974832535
v -1 -0.1500000059604645 -9.999999974752427e-07
v -1 0.1500000059604645 -9.999999974752427e-07
v -0.9807850122451782 -0.1500000059604645 -0.1950909942388535
v -0.9807850122451782 0.1500000059604645 -0.1950909942388535
v -0.9238790273666382 -0.1500000059604645 -0.3826839923858643
v -0.9238790273666382 0.1500000059604645 -0.3826839923858643
v -0.8314689993858337 -0.1500000059604645 -0.5555710196495056
v -0.8314689993858337 0.1500000059604645 -0.5555710196495056
v -0.7071059942245483 -0.1500000059604645 -0.7071080207824707
v -0.7071059942245483 0.1500000059604645 -0.7071080207824707
v -0.5555689930915833 -0.1500000059604645 -0.8314700126647949
v -0.5555689930915833 0.1500000059604645 -0.8314700126647949
v -0.3826819956302643 -0.1500000059604645 -0.9238799810409546
v -0.3826819956302643 0.1500000059604645 -0.9238799810409546
v -0.1950889974832535 -0.1500000059604645 -0.9807860255241394
v -0.1950889974832535 0.1500000059604645 -0.9807860255241394
vt 0.4609479904174805 -0.8702170252799988
vt 0.5185030102729797 -0.8702170252799988
vt 0.4609479904174805 -0.8016980290412903
vt 0.5185030102729797 -0.8016970157623291
vt 0.4609479904174805 -0.733178973197937
vt 0.5185030102729797 -0.7331780195236206
vt 0.4609479904174805 -0.6646599769592285
vt 0.5185030102729797 -0.6646590232849121
vt 0.4609479904174805 -0.59614098072052
vt 0.5185030102729797 -0.5961400270462036
vt 0.4609479904174805 -0.5276209712028503
vt 0.5185030102729797 -0.5276209712028503
vt 0.4609479904174805 -0.4591020047664642
vt 0.5185030102729797 -0.4591020047664642
vt 0.4609479904174805 -0.3905830085277557
vt 0.5185030102729797 -0.3905830085277557
vt 0.4609479904174805 -0.3220640122890472
vt 0.5185030102729797 -0.3220640122890472
vt 0.4609479904174805 -0.2535449862480164
vt 0.5185040235519409 -0.2535449862480164
vt 0.4609479904174805 -0.1850260049104691
vt 0.5185040235519409 -0.1850260049104691
vt 0.4609479904174805 -0.11650700122118
vt 0.4609479904174805 -0.1366560012102127
vt 0.5185040235519409 -0.11650700122118
vt 0.5185040235519409 -0.1366560012102127
vt 0.4609479904174805 -0.02429600059986115
vt 0.5185040235519409 -0.02429600059986115
vt 0.4609479904174805 0.08806300163269043
vt 0.5185040235519409 0.08806300163269043
vt 0.4609479904174805 0.2162529975175858
vt 0.5185040235519409 0.2162529975175858
vt 0.4609479904174805 0.3553470075130463
vt 0.5185040235519409 0.3553470075130463
vt 0.4609479904174805 0.5
vt 0.5185040235519409 0.5
vt 0.4609479904174805 0.6446530222892761
vt 0.5185040235519409 0.6446530222892761
vt 0.4609479904174805 0.7837470173835754
vt 0.5185040235519409 0.7837470173835754
vt 0.4609490036964417 0.9119369983673096
vt 0.5185040235519409 0.9119369983673096
vt 0.4609490036964417 1.024296045303345
vt 0.5185040235519409 1.024296045303345
vt 0.4609490036964417 1.116508007049561
vt 0.5185040235519409 1.116507053375244
vt 0.4609490036964417 1.185026049613953
vt 0.5185040235519409 1.185026049613953
vt 0.4609490036964417 1.227220058441162
vt 0.4609479904174805 -1.486889004707336
vt 0.5185040235519409 1.227220058441162
vt 0.5185019969940186 -1.48688805103302
vt 0.4609479904174805 -1.418369054794312
vt 0.5185030102729797 -1.418369054794312
vt 0.4609479904174805 -1.349850058555603
vt 0.5185030102729797 -1.349850058555603
vt 0.4609479904174805 -1.281330943107605
vt 0.5185030102729797 -1.281330943107605
vt 0.4609479904174805 -1.212811946868897
vt 0.5185030102729797 -1.21281099319458
vt 0.4609479904174805 -1.144292950630188
vt 0.5185030102729797 -1.144291996955872
vt 0.4609479904174805 -1.07577395439148
vt 0.5185030102729797 -1.075773000717163
vt 0.4609479904174805 -1.007254958152771
vt 0.5185030102729797 -1.007254004478455
vt 0.4609479904174805 -0.9387360215187073
vt 0.5185030102729797 -0.9387350082397461
vn 2.320855401194422e-06 0 -1
vn 2.320855401194422e-06 0 -1
vn 0.1950894147157669 0 -0.9807854890823364
vn 0.1950894147157669 0 -0.9807854890823364
vn 0.3826817572116852 0 -0.9238802194595337
vn 0.3826817572116852 0 -0.9238802194595337
vn 0.5555697679519653 0 -0.8314698934555054
vn 0.5555697679519653 0 -0.8314698934555054
vn 0.7071067690849304 0 -0.7071067690849304
vn 0.7071067690849304 0 -0.7071067690849304
vn 0.8314698934555054 0 -0.5555697679519653
vn 0.8314698934555054 0 -0.5555697679519653
vn 0.9238802194595337 0 -0.3826817572116852
vn 0.9238802194595337 0 -0.3826817572116852
vn 0.9807854890823364 0 -0.1950894147157669
vn 0.9807854890823364 0 -0.1950894147157669
vn 1 0 0
vn 1 0 0
vn 0.9807854890823364 0 0.1950894147157669
vn 0.9807854890823364 0 0.1950894147157669
vn 0.9238802194595337 0 0.3826817572116852
vn 0.9238802194595337 0 0.3826817572116852
vn 0.8819214105606079 0 0.4713965058326721
vn 0.7730109691619873 0 0.6343926787376404
vn 0.8819214105606079 0 0.4713965058326721
vn 0.7730109691619873 0 0.6343926787376404
vn 0.7071067690849304 0 0.7071067690849304
vn 0.7071067690849304 0 0.7071067690849304
vn 0.5555697679519653 0 0.8314698934555054
vn 0.5555697679519653 0 0.8314698934555054
vn 0.3826817572116852 0 0.9238802194595337
vn 0.3826817572116852 0 0.9238802194595337
vn 0.1950894147157669 0 0.9807854890823364
vn 0.1950894147157669 0 0.9807854890823364
vn 2.470588356118242e-07 0 1
vn 2.470588356118242e-07 0 1
vn -0.1950914710760117 0 0.980785071849823
vn -0.1950914710760117 0 0.980785071849823
vn -0.3826840221881867 0 0.9238792657852173
vn -0.3826840221881867 0 0.9238792657852173
vn -0.5555712580680847 0 0.831468939781189
vn -0.5555712580680847 0 0.831468939781189
vn -0.7071067690849304 0 0.7071067690849304
vn -0.7071067690849304 0 0.7071067690849304
vn -0.8314689993858337 0 0.5555711984634399
vn -0.8314689993858337 0 0.5555711984634399
vn -0.9238805174827576 0 0.3826810717582703
vn -0.9238805174827576 0 0.3826810717582703
vn -0.9569417238235474 0 0.2902800440788269
vn -0.995184600353241 0 0.09801865369081497
vn -0.9569417238235474 0 0.2902800440788269
vn -0.995184600353241 0 0.09801865369081497
vn -1 0 -3.743315879489728e-09
vn -1 0 -3.743315879489728e-09
vn -0.9807850122451782 0 -0.1950917094945908
vn -0.9807850122451782 0 -0.1950917094945908
vn -0.9238792657852173 0 -0.3826840221881867
vn -0.9238792657852173 0 -0.3826840221881867
vn -0.8314698338508606 0 -0.5555698871612549
vn -0.8314698338508606 0 -0.5555698871612549
vn -0.7071053981781006 0 -0.7071081399917603
vn -0.7071053981781006 0 -0.7071081399917603
vn -0.5555681586265564 0 -0.8314710259437561
vn -0.5555681586265564 0 -0.8314710259437561
vn -0.3826840817928314 0 -0.9238792657852173
vn -0.3826840817928314 0 -0.9238792657852173
vn -0.19508957862854 0 -0.9807854294776917
vn -0.19508957862854 0 -0.9807854294776917
f 1/1/1 2/2/2 4/4/4 3/3/3
f 3/3/3 4/4/4 6/6/6 5/5/5
f 5/5/5 6/6/6 8/8/8 7/7/7
f 7/7/7 8/8/8 10/10/10 9/9/9
f 9/9/9 10/10/10 12/12/12 11/11/11
f 11/11/11 12/12/12 14/14/14 13/13/13
f 13/13/13 14/14/14 16/16/16 15/15/15
f 15/15/15 16/16/16 18/18/18 17/17/17
f 17/17/17 18/18/18 20/20/20 19/19/19
f 19/19/19 20/20/20 22/22/22 21/21/21
f 21/21/21 22/22/22 25/25/25 23/23/23
f 24/24/24 26/26/26 28/28/28 27/27/27
f 27/27/27 28/28/28 30/30/30 29/29/29
f 29/29/29 30/30/30 32/32/32 31/31/31
f 31/31/31 32/32/32 34/34/34 33/33/33
f 33/33/33 34/34/34 36/36/36 35/35/35
f 35/35/35 36/36/36 38/38/38 37/37/37
f 37/37/37 38/38/38 40/40/40 39/39/39
f 39/39/39 40/40/40 42/42/42 41/41/41
f 41/41/41 42/42/42 44/44/44 43/43/43
f 43/43/43 44/44/44 46/46/46 45/45/45
f 45/45/45 46/46/46 48/48/48 47/47/47
f 47/47/47 48/48/48 51/51/51 49/49/49
f 50/50/50 52/52/52 54/54/54 53/53/53
f 53/53/53 54/54/54 56/56/56 55/55/55
f 55/55/55 56/56/56 58/58/58 57/57/57
f 57/57/57 58/58/58 60/60/60 59/59/59
f 59/59/59 60/60/60 62/62/62 61/61/61
f 61/61/61 62/62/62 64/64/64 63/63/63
f 63/63/63 64/64/64 66/66/66 65/65/65
f 67/67/67 68/68/68 2/2/2 1/1/1
f 65/65/65 66/66/66 68/68/68 67/67/67
g Cylinder
usemtl Material_2
v 0 -0.1500000059604645 -1
v 0 0.1500000059604645 -1
v 0.1950899958610535 -0.1500000059604645 -0.9807850122451782
v 0.1950899958610535 0.1500000059604645 -0.9807850122451782
v 0.3826830089092255 -0.1500000059604645 -0.9238799810409546
v 0.3826830089092255 0.1500000059604645 -0.9238799810409546
v 0.5555700063705444 -0.1500000059604645 -0.8314700126647949
v 0.5555700063705444 0.1500000059604645 -0.8314700126647949
v 0.7071070075035095 -0.1500000059604645 -0.7071070075035095
v 0.7071070075035095 0.1500000059604645 -0.7071070075035095
v 0.8314700126647949 -0.1500000059604645 -0.5555700063705444
v 0.8314700126647949 0.1500000059604645 -0.5555700063705444
v 0.9238799810409546 -0.1500000059604645 -0.3826830089092255
v 0.9238799810409546 0.1500000059604645 -0.3826830089092255
v 0.9807850122451782 -0.1500000059604645 -0.1950899958610535
v 0.9807850122451782 0.1500000059604645 -0.1950899958610535
v 1 -0.1500000059604645 0
v 1 0.1500000059604645 0
v 0.9807850122451782 -0.1500000059604645 0.1950899958610535
v 0.9807850122451782 0.1500000059604645 0.1950899958610535
v 0.9238799810409546 -0.1500000059604645 0.3826830089092255
v 0.9238799810409546 0.1500000059604645 0.3826830089092255
v 0.8314700126647949 -0.1500000059604645 0.5555700063705444
v 0.8314700126647949 0.1500000059604645 0.5555700063705444
v 0.7071070075035095 -0.1500000059604645 0.7071070075035095
v 0.7071070075035095 0.1500000059604645 0.7071070075035095
v 0.5555700063705444 -0.1500000059604645 0.8314700126647949
v 0.5555700063705444 0.1500000059604645 0.8314700126647949
v 0.3826830089092255 -0.1500000059604645 0.9238799810409546
v 0.3826830089092255 0.1500000059604645 0.9238799810409546
v 0.1950899958610535 -0.1500000059604645 0.9807850122451782
v 0.1950899958610535 0.1500000059604645 0.9807850122451782
v 0 -0.1500000059604645 1
v 0 0.1500000059604645 1
v -0.1950909942388535 -0.1500000059604645 0.9807850122451782
v -0.1950909942388535 0.1500000059604645 0.9807850122451782
v -0.3826839923858643 -0.1500000059604645 0.9238790273666382
v -0.3826839923858643 0.1500000059604645 0.9238790273666382
v -0.5555710196495056 -0.1500000059604645 0.8314689993858337
v -0.5555710196495056 0.1500000059604645 0.8314689993858337
v -0.7071070075035095 -0.1500000059604645 0.7071059942245483
v -0.7071070075035095 0.1500000059604645 0.7071059942245483
v -0.8314700126647949 -0.1500000059604645 0.5555700063705444
v -0.8314700126647949 0.1500000059604645 0.5555700063705444
v -0.9238799810409546 -0.1500000059604645 0.3826830089092255
v -0.9238799810409546 0.1500000059604645 0.3826830089092255
v -0.9807850122451782 -0.1500000059604645 0.1950889974832535
v -0.9807850122451782 0.1500000059604645 0.1950889974832535
v -1 -0.1500000059604645 -9.999999974752427e-07
v -1 0.1500000059604645 -9.999999974752427e-07
v -0.9807850122451782 -0.1500000059604645 -0.1950909942388535
v -0.9807850122451782 0.1500000059604645 -0.1950909942388535
v -0.9238790273666382 -0.1500000059604645 -0.3826839923858643
v -0.9238790273666382 0.1500000059604645 -0.3826839923858643
v -0.8314689993858337 -0.1500000059604645 -0.5555710196495056
v -0.8314689993858337 0.1500000059604645 -0.5555710196495056
v -0.7071059942245483 -0.1500000059604645 -0.7071080207824707
v -0.7071059942245483 0.1500000059604645 -0.7071080207824707
v -0.5555689930915833 -0.1500000059604645 -0.8314700126647949
v -0.5555689930915833 0.1500000059604645 -0.8314700126647949
v -0.3826819956302643 -0.1500000059604645 -0.9238799810409546
v -0.3826819956302643 0.1500000059604645 -0.9238799810409546
v -0.1950889974832535 -0.1500000059604645 -0.9807860255241394
v -0.1950889974832535 0.1500000059604645 -0.9807860255241394
vt 0.7547910213470459 0.9931600093841553
vt 0.2467039972543716 0.9898290038108826
vt 0.7089530229568481 0.9837920069694519
vt 0.2933219969272614 0.9804390072822571
vt 0.6648769974708557 0.9560480117797852
vt 0.3381479978561401 0.952629029750824
vt 0.6242550015449524 0.9109950065612793
vt 0.3794609904289246 0.9074670076370239
vt 0.5886499881744385 0.85036301612854
vt 0.4156709909439087 0.8466899991035461
vt 0.5594300031661987 0.7764819860458374
vt 0.445387989282608 0.7726320028305054
vt 0.5377169847488403 0.6921929717063904
vt 0.4674699902534485 0.6881409883499146
vt 0.5243470072746277 0.6007329821586609
vt 0.4810679852962494 0.5964630246162415
vt 0.5198320150375366 0.5056179761886597
vt 0.4856590032577515 0.5011199712753296
vt 0.5243470072746277 0.4105030000209808
vt 0.4810679852962494 0.4057770073413849
vt 0.5377169847488403 0.3190430104732513
vt 0.4674699902534485 0.3140990138053894
vt 0.5594300031661987 0.2347539961338043
vt 0.445387989282608 0.2296070009469986
vt 0.5886499881744385 0.1608729958534241
vt 0.4156709909439087 0.1555500030517578
vt 0.6242550015449524 0.1002409979701042
vt 0.3794609904289246 0.09477300196886063
vt 0.6648759841918945 0.05518700182437897
vt 0.3381479978561401 0.04961099848151207
vt 0.7089530229568481 0.02744299918413162
vt 0.2933219969272614 0.02180100046098232
vt 0.7547910213470459 0.01807500049471855
vt 0.2467039972543716 0.0124099999666214
vt 0.8006290197372437 0.02744200080633164
vt 0.2000859975814819 0.02180100046098232
vt 0.8447059988975525 0.05518700182437897
vt 0.1552599966526032 0.04961099848151207
vt 0.8853269815444946 0.1002399995923042
vt 0.1139480024576187 0.09477300196886063
vt 0.9209319949150085 0.1608719974756241
vt 0.0777370035648346 0.1555500030517578
vt 0.9501529932022095 0.2347529977560043
vt 0.04802000150084496 0.2296079993247986
vt 0.9718649983406067 0.3190430104732513
vt 0.0259380005300045 0.3140990138053894
vt 0.9852359890937805 0.4105019867420197
vt 0.01234100013971329 0.4057779908180237
vt 0.9897500276565552 0.5056170225143433
vt 0.00774900009855628 0.5011199712753296
vt 0.9852359890937805 0.6007320284843445
vt 0.01234100013971329 0.5964630246162415
vt 0.9718649983406067 0.692192018032074
vt 0.02593900077044964 0.6881409883499146
vt 0.9501529932022095 0.7764819860458374
vt 0.04802000150084496 0.7726330161094666
vt 0.9209319949150085 0.8503620028495789
vt 0.07773800194263458 0.8466899991035461
vt 0.8853269815444946 0.9109939932823181
vt 0.1139480024576187 0.9074670076370239
vt 0.8447059988975525 0.9560480117797852
vt 0.1552599966526032 0.952629029750824
vt 0.8006290197372437 0.9837920069694519
vt 0.2000869959592819 0.9804390072822571
vn 0 -1 0
vn 0 1 0
vn 0 -1 0
vn 0 1 0
vn 0 -1 0
vn 0 1 0
vn 0 -1 0
vn 0 1 0
vn 0 -1 0
vn 0 1 0
vn 0 -1 0
vn 0 1 0
vn 0 -1 0
vn 0 1 0
vn 0 -1 0
vn 0 1 0
vn 0 -1 0
vn 0 1 0
vn 0 -1 0
vn 0 1 0
vn 0 -1 0
vn 0 1 0
vn 0 -1 0
vn 0 1 0
vn 0 -1 0
vn 0 1 0
vn 0 -1 0
vn 0 1 0
vn 0 -1 0
vn 0 1 0
vn 0 -1 0
vn 0 1 0
vn 0 -1 0
vn 0 1 0
vn 0 -1 0
vn 0 1 0
vn 0 -1 0
vn 0 1 0
vn 0 -1 0
vn 0 1 0
vn 0 -1 0
vn 0 1 0
vn 0 -1 0
vn 0 1 0
vn 0 -1 0
vn 0 1 0
vn 0 -1 0
vn 0 1 0
vn 0 -1 0
vn 0 1 0
vn 0 -1 0
vn 0 1 0
vn 0 -1 0
vn 0 1 0
vn 0 -1 0
vn 0 1 0
vn 0 -1 0
vn 0 1 0
vn 0 -1 0
vn 0 1 0
vn 0 -1 0
vn 0 1 0
vn 0 -1 0
vn 0 1 0
f 72/72/72 70/70/70 130/130/130
f 70/70/70 132/132/132 130/130/130
f 130/130/130 128/128/128 72/72/72
f 128/128/128 126/126/126 124/124/124
f 124/124/124 122/122/122 128/128/128
f 122/122/122 120/120/120 116/116/116
f 120/120/120 118/118/118 116/116/116
f 116/116/116 114/114/114 112/112/112
f 112/112/112 110/110/110 116/116/116
f 110/110/110 108/108/108 106/106/106
f 106/106/106 104/104/104 100/100/100
f 104/104/104 102/102/102 100/100/100
f 100/100/100 98/98/98 96/96/96
f 96/96/96 94/94/94 92/92/92
f 92/92/92 90/90/90 88/88/88
f 88/88/88 86/86/86 84/84/84
f 84/84/84 82/82/82 80/80/80
f 80/80/80 78/78/78 76/76/76
f 76/76/76 74/74/74 72/72/72
f 72/72/72 128/128/128 116/116/116
f 128/128/128 122/122/122 116/116/116
f 116/116/116 110/110/110 100/100/100
f 110/110/110 106/106/106 100/100/100
f 100/100/100 96/96/96 92/92/92
f 92/92/92 88/88/88 100/100/100
f 88/88/88 84/84/84 116/116/116
f 84/84/84 80/80/80 76/76/76
f 72/72/72 116/116/116 84/84/84
f 72/72/72 84/84/84 76/76/76
f 116/116/116 100/100/100 88/88/88
f 69/69/69 71/71/71 129/129/129
f 71/71/71 73/73/73 75/75/75
f 75/75/75 77/77/77 79/79/79
f 79/79/79 81/81/81 83/83/83
f 83/83/83 85/85/85 87/87/87
f 87/87/87 89/89/89 91/91/91
f 91/91/91 93/93/93 95/95/95
f 95/95/95 97/97/97 99/99/99
f 99/99/99 101/101/101 103/103/103
f 103/103/103 105/105/105 99/99/99
f 105/105/105 107/107/107 109/109/109
f 109/109/109 111/111/111 115/115/115
f 111/111/111 113/113/113 115/115/115
f 115/115/115 117/117/117 119/119/119
f 119/119/119 121/121/121 115/115/115
f 121/121/121 123/123/123 127/127/127
f 123/123/123 125/125/125 127/127/127
f 127/127/127 129/129/129 71/71/71
f 71/71/71 75/75/75 79/79/79
f 79/79/79 83/83/83 71/71/71
f 83/83/83 87/87/87 115/115/115
f 87/87/87 91/91/91 95/95/95
f 95/95/95 99/99/99 87/87/87
f 99/99/99 105/105/105 109/109/109
f 99/99/99 109/109/109 115/115/115
f 99/99/99 115/115/115 87/87/87
f 115/115/115 121/121/121 127/127/127
f 71/71/71 83/83/83 115/115/115
f 71/71/71 115/115/115 127/127/127
f 129/129/129 131/131/131 69/69/69
